<?xml version="1.0" encoding="UTF-8"?>
<svg version="1.1" xmlns="http://www.w3.org/2000/svg" width="810" height="1239">
<path d="M0 0 C1.09476918 -0.00598097 2.18953835 -0.01196195 3.31748235 -0.01812416 C6.96324987 -0.02959786 10.60673127 0.00875043 14.25228882 0.04710388 C16.87441962 0.04907959 19.4965543 0.04796774 22.11868286 0.04400635 C27.75218725 0.04034736 33.38512128 0.06218764 39.01848221 0.10167122 C47.16313208 0.15871877 55.307508 0.17680733 63.452336 0.18558716 C76.66868729 0.20088296 89.88473502 0.24740022 103.10092163 0.31370544 C115.93423959 0.37802262 128.7674749 0.4275401 141.60092163 0.45726013 C142.39283522 0.4590992 143.18474881 0.46093826 144.00065978 0.46283305 C147.97371587 0.47196875 151.94677254 0.4808146 155.91982961 0.48951638 C188.84646272 0.56200675 221.77272372 0.68523122 254.69906616 0.84178162 C254.36906616 1.50178162 254.03906616 2.16178162 253.69906616 2.84178162 C250.77626026 3.34318347 247.8905335 3.73921129 244.94906616 4.09178162 C206.97314128 9.30275737 172.58266365 28.22037688 143.69906616 52.84178162 C142.60331852 53.75266798 141.50692886 54.66278241 140.41000366 55.57225037 C128.98759068 65.11543032 118.26886579 75.4266843 108.69906616 86.84178162 C107.91789429 87.73381287 107.13672241 88.62584412 106.33187866 89.54490662 C59.93119859 142.80160115 29.58554781 209.01047422 5.69906616 274.84178162 C5.42385132 275.598703 5.14863647 276.35562439 4.86508179 277.13548279 C-29.85487488 372.85246545 -49.07931135 474.43349348 -80.98843384 789.65428162 C-81.04027454 790.60129566 -81.09211525 791.54830971 -81.14552689 792.52402115 C-82.69822688 820.95582589 -84.04902042 849.39524496 -85.30093384 877.84178162 C-90.67164491 878.59780775 -95.89673307 878.98460779 -101.32424927 878.96203613 C-102.09062541 878.96289056 -102.85700154 878.96374498 -103.6466012 878.9646253 C-106.19221049 878.96626097 -108.73775259 878.96079032 -111.28335571 878.95530701 C-113.11702472 878.9550247 -114.95069385 878.95518373 -116.78436279 878.95574951 C-121.74655068 878.95603577 -126.70871427 878.95016673 -131.67089653 878.94317555 C-136.86255647 878.93691349 -142.054217 878.93633596 -147.24588013 878.93515015 C-157.07000839 878.93204524 -166.89412549 878.92384318 -176.71824884 878.91380066 C-187.90564443 878.90261341 -199.09304055 878.89712249 -210.28044033 878.89210522 C-233.28727768 878.88165987 -256.29410513 878.86407671 -279.30093384 878.84178162 C-279.37211464 861.19083867 -279.42444032 843.53994262 -279.45637035 825.88888741 C-279.47161294 817.68677477 -279.49233771 809.48475395 -279.5272522 801.28269958 C-279.68329455 763.83370941 -279.44870401 726.6064152 -276.48984909 689.24462128 C-276.31248774 686.98873726 -276.14235761 684.73247384 -275.97601318 682.47575378 C-275.38381278 674.4657715 -274.71727759 666.46540575 -273.98843384 658.46678162 C-273.88488586 657.30960632 -273.78133789 656.15243103 -273.6746521 654.96018982 C-265.50625037 563.97544121 -251.49868792 473.49261082 -229.30093384 384.84178162 C-229.09939697 384.03434509 -228.89786011 383.22690857 -228.69021606 382.39500427 C-206.49691124 293.62178498 -175.11026014 204.68142024 -85.81655884 70.75975037 C-83.38699592 67.94160828 -81.0586448 65.06265795 -78.73843384 62.15428162 C-74.97289306 57.51976989 -70.9008728 53.33689079 -66.62905884 49.16990662 C-64.60931917 47.15016695 -62.75797511 45.09205906 -60.92593384 42.90428162 C-56.62936271 37.88993037 -51.68940719 33.5646636 -46.77798462 29.1703949 C-45.44031771 27.96715799 -44.11774454 26.74719308 -42.79702759 25.52537537 C-38.11913788 21.21740115 -33.29080171 17.1546584 -28.30093384 13.21678162 C-27.48326538 12.56999451 -27.48326538 12.56999451 -26.64907837 11.91014099 C-25.54972008 11.05289366 -24.44124352 10.20720256 -23.32365358 9.37386328 C-21.90924916 8.30254181 -20.5197709 7.19786903 -19.15062487 6.069282 C-12.69978539 1.04679926 -8.07665898 -0.16372215 0 0 Z " fill="#000000" transform="translate(279.3009338378906,357.15821838378906)"/>
<path d="M0 0 C0.64888184 0.18191895 1.29776367 0.36383789 1.96630859 0.55126953 C26.04454564 7.40190448 47.43215489 21.00851022 65.71875 37.90625 C67.68580323 39.71162762 69.69694453 41.41992004 71.75 43.125 C82.7836574 52.77666395 92.30180883 64.24375378 101 76 C101.47115234 76.63599121 101.94230469 77.27198242 102.42773438 77.92724609 C130.65678799 116.3417493 150.31377017 159.21111881 166 204 C166.22903015 204.65337341 166.4580603 205.30674683 166.69403076 205.97991943 C197.61058684 294.55922443 210.21117213 389.98580427 217.85217285 501.56225586 C217.99270044 503.87962663 218.13782217 506.19666302 218.28417969 508.51367188 C221.61340448 561.86258696 222.07324523 615.4387776 222.59330368 668.87280273 C222.62395629 672.01791076 222.65559277 675.16300779 222.68728638 678.30810547 C223.07588951 718.20710331 223 758.09667469 223 798 C157.99 798 92.98 798 26 798 C25.37776786 761.2883036 24.84541779 724.59948577 24.61212158 687.88668823 C23.92850057 583.13976088 21.39764322 478.1691712 -29 234 C-29.41072754 232.76942871 -29.82145508 231.53885742 -30.24462891 230.27099609 C-42.22195126 194.67669014 -57.80408762 159.71227201 -78 128 C-78.70511719 126.89011719 -79.41023438 125.78023437 -80.13671875 124.63671875 C-89.90847735 109.67185517 -100.83848434 95.55048246 -112.875 82.34375 C-114.82494724 80.19307289 -116.73026129 78.01175029 -118.625 75.8125 C-123.76761762 69.92508948 -129.2658411 64.64363965 -135.30078125 59.67578125 C-137.09642786 57.90490218 -138.01111769 56.30404558 -139 54 C-118.74861062 24.30381947 -91.68697325 4.2067934 -56 -3 C-37.71386359 -5.96499586 -17.77339721 -5.23607466 0 0 Z " fill="#11B2B1" transform="translate(583,438)"/>
<path d="M0 0 C0.71603394 -0.00261841 1.43206787 -0.00523682 2.1697998 -0.00793457 C16.24114796 -0.01344811 28.99950147 1.46073087 42.0625 6.875 C48.24654802 9.09403253 52.59652087 7.3101405 58.48828125 4.83984375 C69.17309981 0.71143466 80.44541885 -0.18565643 91.79199219 -0.07861328 C93.81253481 -0.06249972 95.83107874 -0.07859508 97.8515625 -0.09765625 C110.18236767 -0.11837904 122.00417256 1.96821871 133.6875 5.9375 C134.8014917 6.31491333 134.8014917 6.31491333 135.93798828 6.69995117 C153.69382441 12.99417946 168.16563586 23.47965934 181.8125 36.3125 C182.40289063 36.8384375 182.99328125 37.364375 183.6015625 37.90625 C203.25572967 56.16320149 214.93261707 83.41158289 219.8125 109.3125 C220.15087891 111.08947266 220.15087891 111.08947266 220.49609375 112.90234375 C226.54316271 150.64439484 217.35028955 188.37209467 195.578125 219.5078125 C185.73359225 233.06602856 173.84847925 244.21692371 159.8125 253.3125 C158.85085938 253.94671875 157.88921875 254.5809375 156.8984375 255.234375 C130.26833893 271.8139956 96.85299673 276.26263524 66.4921875 269.359375 C55.91483316 266.83124502 55.91483316 266.83124502 52.2890625 265.125 C46.45029154 263.20944107 40.05266861 266.04198766 34.375 267.75 C2.0965978 277.01835157 -30.43141209 272.17442013 -59.80615234 256.63867188 C-91.10028896 239.21097554 -112.68018267 208.2073044 -122.41186523 174.22021484 C-124.10798372 167.97464771 -125.45221013 161.74867367 -126.1875 155.3125 C-126.29707031 154.46429688 -126.40664063 153.61609375 -126.51953125 152.7421875 C-130.68015651 115.57393522 -120.64848731 77.51964886 -97.53955078 47.984375 C-73.08642581 17.74692469 -38.9863932 0.13546967 0 0 Z " fill="#11B1B0" transform="translate(387.1875,-0.3125)"/>
<path d="M0 0 C1.0735524 -0.00392761 1.0735524 -0.00392761 2.16879272 -0.00793457 C17.89784196 -0.01410101 32.2414169 2.15662669 46.8125 8.3125 C44.37337933 11.11055482 41.85980218 12.3519503 38.5 13.875 C26.96216208 19.51138031 17.05594991 27.46272343 7.8125 36.3125 C7.06613281 36.99570312 6.31976563 37.67890625 5.55078125 38.3828125 C-20.24864046 62.78645398 -31.63872773 98.37000716 -33.37109375 132.98046875 C-34.06867411 168.63913546 -21.57609812 202.49071317 1.8125 229.3125 C2.42222656 230.06660156 3.03195312 230.82070312 3.66015625 231.59765625 C14.958751 245.19914929 30.98917412 254.88303774 46.8125 262.3125 C43.22370934 265.55185578 39.12799922 266.64708801 34.5625 267.875 C33.76473145 268.09115967 32.96696289 268.30731934 32.14501953 268.5300293 C-0.42358706 277.0092199 -33.07310804 271.52629712 -62.1875 255.3125 C-93.76302625 236.3951337 -114.64769615 204.68547278 -123.66943359 169.45703125 C-124.80231892 164.76746261 -125.64011788 160.10387077 -126.1875 155.3125 C-126.29707031 154.46429688 -126.40664063 153.61609375 -126.51953125 152.7421875 C-130.68015651 115.57393522 -120.64848731 77.51964886 -97.53955078 47.984375 C-73.08641716 17.746914 -38.98640018 0.13548706 0 0 Z " fill="#000000" transform="translate(387.1875,-0.3125)"/>
</svg>
