<svg id="svg" version="1.1" xmlns="http://www.w3.org/2000/svg" xmlns:xlink="http://www.w3.org/1999/xlink" width="400" height="611.8518518518518" viewBox="0, 0, 400,611.8518518518518"><g id="svgg"><path id="path0" d="M183.200 0.191 C 182.870 0.267,180.665 0.639,178.300 1.019 C 175.935 1.399,174.000 1.866,174.000 2.055 C 174.000 2.245,173.780 2.400,173.511 2.400 C 172.837 2.400,167.447 4.097,167.200 4.387 C 167.090 4.516,166.190 4.974,165.200 5.404 C 164.210 5.834,163.173 6.403,162.896 6.669 C 162.618 6.934,161.763 7.378,160.996 7.656 C 160.228 7.934,159.600 8.314,159.600 8.501 C 159.600 8.688,158.970 9.104,158.200 9.426 C 157.430 9.748,156.800 10.193,156.800 10.415 C 156.800 10.638,156.395 10.995,155.900 11.209 C 153.700 12.160,150.360 15.183,144.400 21.617 C 142.740 23.409,142.061 24.351,141.742 25.300 C 141.612 25.685,141.351 26.000,141.161 26.000 C 140.972 26.000,140.449 26.720,140.000 27.600 C 139.551 28.480,139.044 29.200,138.874 29.200 C 138.703 29.200,138.230 30.010,137.822 31.000 C 137.413 31.990,136.966 32.800,136.828 32.800 C 136.689 32.800,136.227 33.700,135.800 34.800 C 135.373 35.900,134.889 36.800,134.723 36.800 C 134.558 36.800,134.135 37.790,133.783 39.000 C 133.431 40.210,133.002 41.200,132.829 41.200 C 132.657 41.200,132.097 42.955,131.586 45.100 C 131.075 47.245,130.531 49.090,130.379 49.200 C 129.991 49.479,128.800 57.911,128.800 60.373 C 128.800 61.488,128.620 62.400,128.400 62.400 C 128.158 62.400,128.000 64.133,128.000 66.800 C 128.000 69.467,128.158 71.200,128.400 71.200 C 128.620 71.200,128.800 72.152,128.800 73.316 C 128.800 75.870,129.964 84.518,130.346 84.799 C 130.496 84.910,131.036 86.620,131.547 88.600 C 132.057 90.579,132.620 92.289,132.796 92.400 C 132.973 92.510,133.321 93.357,133.569 94.282 C 133.818 95.207,134.254 96.197,134.539 96.482 C 134.824 96.767,135.384 97.855,135.783 98.900 C 136.182 99.945,136.635 100.800,136.790 100.800 C 136.945 100.800,137.312 101.529,137.606 102.420 C 137.900 103.310,138.348 104.165,138.601 104.320 C 138.855 104.474,139.498 105.410,140.031 106.400 C 140.564 107.390,141.315 108.435,141.700 108.723 C 142.085 109.010,142.400 109.440,142.400 109.677 C 142.400 109.914,142.805 110.516,143.300 111.015 C 143.795 111.514,145.815 113.650,147.789 115.761 C 149.762 117.873,151.544 119.600,151.747 119.600 C 151.950 119.600,152.495 119.967,152.958 120.416 C 154.697 122.101,156.121 123.187,157.243 123.683 C 157.879 123.965,158.400 124.327,158.400 124.487 C 158.400 124.648,158.985 125.079,159.700 125.446 C 160.415 125.812,161.090 126.235,161.200 126.386 C 161.310 126.537,162.435 127.085,163.700 127.604 C 164.965 128.123,166.000 128.669,166.000 128.819 C 166.000 128.968,167.035 129.413,168.300 129.807 C 169.565 130.201,170.702 130.677,170.826 130.865 C 170.950 131.053,172.480 131.511,174.226 131.883 C 175.972 132.255,177.490 132.685,177.600 132.838 C 178.810 134.524,204.390 134.524,205.600 132.838 C 205.710 132.685,207.228 132.255,208.974 131.883 C 210.720 131.511,212.250 131.049,212.374 130.857 C 212.498 130.665,213.005 130.381,213.500 130.227 C 214.903 129.789,214.632 129.519,210.947 127.681 C 163.042 103.789,162.538 31.730,210.100 6.602 C 212.465 5.353,214.400 4.179,214.400 3.994 C 214.400 3.676,210.587 2.400,209.638 2.400 C 209.397 2.400,209.200 2.249,209.200 2.065 C 209.200 0.905,187.072 -0.689,183.200 0.191 M131.307 177.200 C 130.930 177.640,130.402 178.000,130.134 178.000 C 129.865 178.000,129.410 178.327,129.123 178.726 C 128.835 179.126,128.330 179.575,128.000 179.724 C 126.846 180.245,125.826 181.007,125.087 181.900 C 124.677 182.395,124.151 182.800,123.917 182.800 C 123.683 182.800,123.085 183.205,122.587 183.700 C 122.090 184.195,120.735 185.410,119.577 186.400 C 117.442 188.226,114.726 190.659,111.988 193.200 C 111.158 193.970,109.571 195.410,108.462 196.400 C 107.352 197.390,106.433 198.380,106.419 198.600 C 106.405 198.820,105.180 200.189,103.697 201.643 C 102.214 203.096,100.558 204.896,100.019 205.643 C 99.479 206.389,98.624 207.328,98.119 207.729 C 97.613 208.130,97.200 208.610,97.200 208.796 C 97.200 208.982,96.525 209.875,95.700 210.779 C 92.945 213.799,90.800 216.552,90.800 217.067 C 90.800 217.254,90.440 217.632,90.000 217.907 C 89.560 218.182,89.200 218.611,89.200 218.861 C 89.200 219.111,88.833 219.695,88.384 220.158 C 86.949 221.640,85.600 223.308,85.600 223.602 C 85.600 223.759,84.972 224.678,84.204 225.644 C 83.436 226.610,82.806 227.616,82.804 227.880 C 82.802 228.144,82.554 228.504,82.254 228.680 C 81.954 228.856,81.409 229.585,81.044 230.300 C 80.678 231.015,80.247 231.600,80.084 231.600 C 79.922 231.600,79.477 232.320,79.096 233.200 C 78.714 234.080,78.253 234.800,78.070 234.800 C 77.887 234.800,77.315 235.700,76.800 236.800 C 76.285 237.900,75.727 238.800,75.561 238.800 C 75.394 238.800,74.940 239.520,74.552 240.400 C 74.164 241.280,73.728 242.000,73.584 242.000 C 73.440 242.000,72.997 242.720,72.600 243.600 C 72.203 244.480,71.760 245.200,71.616 245.200 C 71.472 245.200,71.036 245.920,70.648 246.800 C 70.260 247.680,69.804 248.400,69.635 248.400 C 69.466 248.400,69.092 249.115,68.803 249.990 C 68.515 250.864,67.976 251.904,67.606 252.301 C 67.236 252.698,66.609 253.873,66.213 254.911 C 65.816 255.950,65.351 256.800,65.179 256.800 C 65.007 256.800,64.557 257.610,64.179 258.600 C 63.801 259.590,63.354 260.400,63.186 260.400 C 63.018 260.400,62.557 261.300,62.161 262.400 C 61.766 263.500,61.319 264.400,61.170 264.400 C 61.020 264.400,60.494 265.480,60.000 266.800 C 59.506 268.120,58.980 269.200,58.830 269.200 C 58.681 269.200,58.234 270.100,57.839 271.200 C 57.443 272.300,56.997 273.200,56.847 273.200 C 56.697 273.200,56.333 274.020,56.037 275.022 C 55.741 276.024,55.280 277.063,55.012 277.331 C 54.744 277.599,54.212 278.759,53.830 279.909 C 53.448 281.059,53.011 282.000,52.859 282.000 C 52.706 282.000,52.143 283.305,51.608 284.900 C 51.072 286.495,50.510 287.890,50.357 288.000 C 50.205 288.110,49.772 289.145,49.394 290.300 C 49.017 291.455,48.584 292.400,48.433 292.400 C 48.282 292.400,47.824 293.570,47.415 295.000 C 47.006 296.430,46.553 297.600,46.409 297.600 C 46.264 297.600,45.821 298.635,45.424 299.900 C 45.027 301.165,44.584 302.290,44.438 302.400 C 44.293 302.510,43.736 304.040,43.200 305.800 C 42.664 307.560,42.121 309.090,41.993 309.200 C 41.686 309.464,40.400 313.537,40.400 314.246 C 40.400 314.551,40.239 314.800,40.043 314.800 C 39.847 314.800,39.369 316.105,38.982 317.700 C 38.595 319.295,38.146 320.690,37.984 320.800 C 37.822 320.910,37.281 322.530,36.781 324.400 C 36.282 326.270,35.751 327.890,35.601 328.000 C 35.450 328.110,34.995 329.460,34.588 331.000 C 34.182 332.540,33.739 333.890,33.604 334.000 C 33.470 334.110,33.013 335.640,32.590 337.400 C 32.167 339.160,31.708 340.690,31.571 340.800 C 31.434 340.910,30.997 342.350,30.600 344.000 C 30.203 345.650,29.756 347.090,29.607 347.200 C 29.458 347.310,28.938 349.284,28.453 351.586 C 27.967 353.888,27.422 355.868,27.241 355.986 C 27.060 356.104,26.584 357.955,26.183 360.100 C 25.782 362.245,25.336 364.000,25.194 364.000 C 25.051 364.000,24.604 365.800,24.200 368.000 C 23.796 370.200,23.346 372.000,23.200 372.000 C 23.054 372.000,22.600 373.845,22.192 376.100 C 21.784 378.355,21.329 380.290,21.182 380.400 C 21.034 380.510,20.502 382.940,20.000 385.800 C 19.498 388.660,18.959 391.090,18.803 391.200 C 18.647 391.310,18.215 393.380,17.842 395.800 C 17.469 398.220,16.993 400.260,16.782 400.333 C 16.572 400.407,16.400 400.910,16.400 401.451 C 16.400 402.976,15.095 410.575,14.794 410.800 C 14.647 410.910,14.200 413.430,13.800 416.400 C 13.400 419.370,12.950 421.890,12.801 422.000 C 12.513 422.211,10.800 434.314,10.800 436.134 C 10.800 436.720,10.647 437.200,10.461 437.200 C 10.275 437.200,9.793 440.035,9.391 443.500 C 8.989 446.965,8.546 449.890,8.406 450.000 C 8.149 450.203,6.794 462.082,6.798 464.100 C 6.799 464.705,6.651 465.200,6.468 465.200 C 6.285 465.200,5.821 468.845,5.436 473.300 C 5.052 477.755,4.583 481.760,4.395 482.200 C 4.059 482.988,3.046 494.929,2.538 504.100 C 2.395 506.685,2.153 508.800,2.000 508.800 C 1.847 508.800,1.597 511.095,1.445 513.900 C 0.174 537.309,0.014 544.301,0.007 576.500 L 0.000 610.400 44.940 610.400 C 69.656 610.400,91.237 610.285,92.896 610.145 L 95.912 609.890 96.205 598.945 C 96.366 592.925,96.656 588.000,96.849 588.000 C 97.042 588.000,97.195 587.055,97.190 585.900 C 97.163 580.530,98.576 551.385,98.869 551.267 C 99.051 551.193,99.196 550.203,99.191 549.067 C 99.174 545.193,100.936 516.601,101.204 516.400 C 101.351 516.290,101.798 511.520,102.197 505.800 C 102.596 500.080,103.042 495.310,103.188 495.200 C 103.334 495.090,103.785 491.040,104.189 486.200 C 104.594 481.360,105.043 477.310,105.189 477.200 C 105.334 477.090,105.784 473.400,106.188 469.000 C 106.592 464.600,107.042 460.910,107.186 460.800 C 107.331 460.690,107.867 456.730,108.378 452.000 C 108.888 447.270,109.435 443.310,109.593 443.200 C 109.750 443.090,110.210 440.120,110.615 436.600 C 111.020 433.080,111.470 430.110,111.616 430.000 C 111.762 429.890,112.200 427.370,112.588 424.400 C 112.977 421.430,113.423 418.910,113.579 418.800 C 113.735 418.690,114.187 416.170,114.583 413.200 C 114.979 410.230,115.440 407.620,115.607 407.400 C 115.773 407.180,116.317 404.390,116.815 401.200 C 117.312 398.010,117.842 395.310,117.993 395.200 C 118.144 395.090,118.603 392.930,119.014 390.400 C 119.425 387.870,119.871 385.710,120.006 385.600 C 120.140 385.490,120.588 383.510,121.000 381.200 C 121.412 378.890,121.871 376.910,122.019 376.800 C 122.167 376.690,122.699 374.350,123.200 371.600 C 123.701 368.850,124.239 366.510,124.394 366.400 C 124.549 366.290,124.996 364.535,125.387 362.500 C 125.779 360.465,126.235 358.800,126.400 358.800 C 126.565 358.800,127.021 357.135,127.413 355.100 C 127.804 353.065,128.248 351.310,128.399 351.200 C 128.550 351.090,129.005 349.560,129.410 347.800 C 129.815 346.040,130.268 344.510,130.418 344.400 C 130.567 344.290,131.082 342.406,131.561 340.213 C 132.041 338.021,132.585 336.131,132.770 336.013 C 132.955 335.896,133.415 334.405,133.793 332.700 C 134.171 330.995,134.606 329.600,134.760 329.600 C 134.914 329.600,135.376 328.250,135.787 326.600 C 136.198 324.950,136.649 323.600,136.790 323.600 C 136.931 323.600,137.380 322.295,137.790 320.700 C 138.199 319.105,138.644 317.710,138.780 317.600 C 138.915 317.490,139.464 315.960,140.000 314.200 C 140.536 312.440,141.079 310.910,141.207 310.800 C 141.506 310.543,142.800 306.472,142.800 305.787 C 142.800 305.501,142.985 305.205,143.211 305.130 C 143.437 305.054,143.878 304.020,144.192 302.832 C 144.505 301.643,144.913 300.565,145.098 300.435 C 145.282 300.306,145.679 299.390,145.980 298.400 C 146.280 297.410,146.740 296.240,147.001 295.800 C 147.263 295.360,147.879 293.785,148.371 292.300 C 148.863 290.815,149.391 289.600,149.545 289.600 C 149.699 289.600,150.067 288.780,150.363 287.778 C 150.659 286.776,151.110 285.741,151.365 285.478 C 151.620 285.215,152.052 284.243,152.325 283.318 C 152.598 282.393,153.042 281.403,153.311 281.118 C 153.580 280.833,154.144 279.565,154.565 278.300 C 154.986 277.035,155.460 276.000,155.619 276.000 C 155.777 276.000,156.325 274.965,156.835 273.700 C 157.345 272.435,157.959 271.199,158.200 270.953 C 158.440 270.707,158.883 269.762,159.183 268.853 C 159.483 267.944,159.855 267.200,160.010 267.200 C 160.165 267.200,160.614 266.345,161.009 265.300 C 161.404 264.255,161.848 263.310,161.996 263.200 C 162.143 263.090,162.700 262.100,163.232 261.000 C 163.764 259.900,164.425 258.762,164.700 258.471 C 164.975 258.181,165.200 257.720,165.200 257.447 C 165.200 257.174,165.517 256.602,165.905 256.175 C 166.293 255.749,166.950 254.635,167.366 253.700 C 167.782 252.765,168.247 252.000,168.400 252.000 C 168.553 252.000,169.016 251.235,169.428 250.300 C 169.840 249.365,170.376 248.473,170.619 248.319 C 170.862 248.164,171.408 247.270,171.831 246.332 C 172.254 245.393,173.005 244.189,173.500 243.654 C 173.995 243.120,174.400 242.439,174.400 242.142 C 174.400 241.844,174.572 241.600,174.781 241.600 C 174.991 241.600,175.461 240.970,175.827 240.200 C 176.192 239.430,176.610 238.800,176.755 238.800 C 176.900 238.800,177.373 238.125,177.807 237.300 C 178.241 236.475,178.912 235.565,179.298 235.277 C 179.684 234.990,180.000 234.505,180.000 234.200 C 180.000 233.895,180.315 233.410,180.700 233.123 C 181.085 232.835,181.728 232.010,182.129 231.289 C 182.530 230.568,183.250 229.559,183.729 229.046 C 184.208 228.534,184.960 227.623,185.400 227.022 C 185.840 226.422,186.605 225.520,187.100 225.019 C 187.595 224.518,188.000 223.958,188.000 223.774 C 188.000 223.591,188.524 222.892,189.164 222.220 C 193.081 218.116,194.800 216.207,194.800 215.965 C 194.800 215.602,204.015 206.400,204.379 206.400 C 204.533 206.400,205.366 205.683,206.230 204.807 C 207.093 203.930,207.953 203.210,208.140 203.207 C 208.326 203.203,208.974 202.705,209.579 202.100 C 210.183 201.495,211.235 200.550,211.915 200.000 C 212.595 199.450,213.622 198.595,214.196 198.100 C 214.771 197.605,215.367 197.200,215.521 197.199 C 215.674 197.199,216.430 196.659,217.200 196.000 C 217.970 195.341,218.816 194.801,219.080 194.801 C 219.344 194.800,219.704 194.554,219.880 194.254 C 220.056 193.954,220.785 193.409,221.500 193.044 C 222.215 192.678,222.800 192.240,222.800 192.070 C 222.800 191.900,223.428 191.534,224.196 191.256 C 224.963 190.978,225.818 190.537,226.096 190.276 C 226.373 190.014,227.500 189.364,228.600 188.832 C 229.700 188.300,230.690 187.743,230.800 187.596 C 230.910 187.448,231.855 187.004,232.900 186.609 C 233.945 186.214,234.800 185.769,234.800 185.619 C 234.800 185.469,235.790 185.034,237.000 184.653 C 238.210 184.271,239.200 183.788,239.200 183.580 C 239.200 183.371,239.440 183.200,239.733 183.200 C 240.509 183.200,245.765 181.525,246.000 181.203 C 246.110 181.052,247.820 180.597,249.800 180.191 C 251.780 179.785,253.495 179.315,253.612 179.146 C 253.729 178.976,255.889 178.628,258.412 178.372 C 263.900 177.816,264.000 177.792,264.000 177.013 C 264.000 175.914,132.249 176.100,131.307 177.200 " stroke="none" fill="#040404" fill-rule="evenodd"></path><path id="path1" d="M224.801 0.847 C 222.272 1.301,220.112 1.805,220.001 1.967 C 219.890 2.129,218.585 2.606,217.100 3.026 C 215.615 3.446,214.400 3.912,214.400 4.060 C 214.400 4.209,212.465 5.353,210.100 6.602 C 162.584 31.706,162.998 103.418,210.800 127.615 C 212.670 128.561,214.292 129.471,214.404 129.636 C 214.516 129.801,215.144 130.071,215.800 130.236 C 216.456 130.400,217.199 130.742,217.452 130.995 C 217.705 131.248,219.192 131.697,220.756 131.992 C 222.320 132.287,223.600 132.653,223.600 132.806 C 223.600 134.497,250.386 134.528,251.600 132.838 C 251.710 132.685,253.228 132.255,254.974 131.883 C 256.720 131.511,258.250 131.051,258.374 130.862 C 258.498 130.673,259.545 130.207,260.700 129.827 C 261.855 129.447,262.800 128.970,262.800 128.768 C 262.800 128.566,263.103 128.400,263.474 128.400 C 264.362 128.400,267.594 126.828,268.575 125.918 C 269.002 125.523,269.559 125.200,269.814 125.200 C 270.069 125.200,270.693 124.840,271.200 124.400 C 271.707 123.960,272.230 123.600,272.361 123.600 C 272.493 123.599,273.140 123.134,273.800 122.566 C 274.460 121.997,275.622 121.052,276.382 120.466 C 278.424 118.891,285.200 112.090,285.200 111.616 C 285.200 111.391,285.570 110.980,286.023 110.703 C 286.475 110.427,287.142 109.570,287.505 108.800 C 287.867 108.030,288.466 107.179,288.836 106.909 C 289.206 106.639,289.623 105.964,289.762 105.409 C 289.901 104.854,290.176 104.400,290.372 104.400 C 290.568 104.400,291.137 103.545,291.637 102.500 C 292.136 101.455,292.676 100.509,292.836 100.399 C 292.996 100.288,293.446 99.388,293.836 98.399 C 294.226 97.409,294.674 96.510,294.833 96.400 C 294.991 96.290,295.421 95.165,295.789 93.900 C 296.156 92.635,296.597 91.600,296.769 91.600 C 296.940 91.600,297.406 90.205,297.803 88.500 C 298.201 86.795,298.665 85.307,298.836 85.193 C 301.062 83.707,301.029 50.362,298.799 48.800 C 298.642 48.690,298.206 47.205,297.830 45.500 C 297.453 43.795,297.012 42.400,296.848 42.400 C 296.685 42.400,296.228 41.320,295.832 40.000 C 295.437 38.680,294.990 37.600,294.840 37.600 C 294.689 37.600,294.229 36.610,293.818 35.400 C 293.407 34.190,292.910 33.200,292.715 33.200 C 292.519 33.200,292.082 32.536,291.743 31.725 C 291.404 30.914,290.693 29.682,290.163 28.988 C 289.634 28.293,289.200 27.525,289.200 27.282 C 289.200 27.039,288.971 26.696,288.690 26.520 C 288.410 26.344,287.838 25.663,287.420 25.007 C 287.002 24.350,286.241 23.362,285.730 22.811 C 285.218 22.259,284.800 21.693,284.800 21.551 C 284.800 20.756,275.054 11.883,273.300 11.083 C 272.805 10.857,272.400 10.529,272.400 10.355 C 272.400 10.180,271.725 9.721,270.900 9.334 C 270.075 8.947,269.141 8.377,268.824 8.068 C 268.508 7.759,267.743 7.329,267.124 7.114 C 266.506 6.898,266.000 6.559,266.000 6.361 C 266.000 6.162,265.812 6.000,265.582 6.000 C 265.351 6.000,263.866 5.398,262.282 4.663 C 260.697 3.927,258.502 3.104,257.405 2.833 C 256.308 2.562,255.318 2.205,255.205 2.039 C 253.972 0.225,232.873 -0.602,224.801 0.847 M260.808 214.477 C 259.162 214.683,257.722 214.984,257.608 215.146 C 257.493 215.308,255.972 215.745,254.226 216.117 C 252.480 216.489,250.950 216.939,250.826 217.116 C 250.702 217.293,249.475 217.773,248.100 218.183 C 246.725 218.592,245.600 219.056,245.600 219.215 C 245.600 219.373,244.520 219.906,243.200 220.400 C 241.880 220.894,240.800 221.453,240.800 221.643 C 240.800 221.834,240.174 222.251,239.408 222.571 C 238.643 222.891,237.520 223.613,236.912 224.176 C 236.305 224.739,235.625 225.200,235.400 225.200 C 235.176 225.200,234.768 225.560,234.493 226.000 C 234.218 226.440,233.810 226.800,233.586 226.800 C 232.890 226.800,227.575 231.863,224.879 235.094 C 224.286 235.805,223.395 236.783,222.900 237.266 C 222.405 237.749,222.000 238.387,222.000 238.685 C 222.000 238.982,221.725 239.331,221.388 239.460 C 220.819 239.678,219.200 242.691,219.200 243.533 C 219.200 243.988,222.917 248.000,223.339 248.000 C 223.739 248.000,230.800 255.023,230.800 255.420 C 230.800 255.592,231.671 256.557,232.734 257.566 C 233.798 258.575,234.783 259.715,234.922 260.100 C 235.061 260.485,235.346 260.800,235.555 260.800 C 235.764 260.800,236.346 261.475,236.849 262.300 C 237.352 263.125,238.087 264.035,238.482 264.323 C 238.877 264.610,239.200 265.084,239.200 265.377 C 239.200 265.669,239.650 266.203,240.200 266.563 C 240.750 266.924,241.200 267.475,241.200 267.789 C 241.200 268.103,241.425 268.504,241.700 268.680 C 241.975 268.856,243.100 270.350,244.200 272.000 C 245.300 273.650,246.425 275.144,246.700 275.320 C 246.975 275.496,247.200 275.867,247.200 276.144 C 247.200 276.422,247.521 276.998,247.913 277.425 C 248.305 277.851,248.944 278.875,249.332 279.700 C 249.720 280.525,250.175 281.200,250.342 281.200 C 250.510 281.200,251.087 282.188,251.624 283.396 C 252.161 284.604,252.727 285.594,252.881 285.596 C 253.036 285.598,253.540 286.365,254.001 287.300 C 255.225 289.780,256.307 291.742,256.712 292.212 C 256.907 292.438,257.391 293.473,257.787 294.512 C 258.184 295.550,258.622 296.400,258.761 296.400 C 258.900 296.400,259.443 297.480,259.967 298.800 C 260.491 300.120,261.038 301.200,261.181 301.200 C 261.325 301.200,261.766 302.100,262.161 303.200 C 262.557 304.300,263.003 305.200,263.153 305.200 C 263.303 305.200,263.667 306.020,263.963 307.022 C 264.259 308.024,264.708 309.059,264.962 309.322 C 265.215 309.585,265.777 310.925,266.211 312.300 C 266.645 313.675,267.120 314.800,267.267 314.800 C 267.413 314.800,267.923 316.058,268.399 317.596 C 268.875 319.134,269.398 320.475,269.562 320.577 C 269.726 320.678,270.198 321.940,270.610 323.380 C 271.022 324.821,271.473 326.000,271.612 326.000 C 271.752 326.000,272.202 327.350,272.613 329.000 C 273.024 330.650,273.474 332.000,273.613 332.000 C 273.752 332.000,274.202 333.350,274.613 335.000 C 275.024 336.650,275.489 338.000,275.647 338.000 C 275.805 338.000,276.324 339.710,276.800 341.800 C 277.276 343.890,277.800 345.600,277.964 345.600 C 278.129 345.600,278.599 347.310,279.010 349.400 C 279.421 351.490,279.880 353.200,280.029 353.200 C 280.179 353.200,280.615 354.820,281.000 356.800 C 281.385 358.780,281.827 360.400,281.983 360.400 C 282.139 360.400,282.685 362.695,283.196 365.500 C 283.706 368.305,284.253 370.690,284.410 370.800 C 284.568 370.910,284.786 371.630,284.896 372.400 C 285.556 377.034,286.151 380.226,286.389 380.400 C 286.697 380.626,288.000 388.215,288.000 389.782 C 288.000 390.342,288.158 390.800,288.352 390.800 C 288.546 390.800,289.023 393.275,289.414 396.300 C 289.804 399.325,290.241 401.890,290.384 402.000 C 290.658 402.210,292.414 416.199,292.405 418.100 C 292.402 418.705,292.551 419.200,292.735 419.200 C 292.920 419.200,293.401 422.935,293.805 427.500 C 294.209 432.065,294.657 435.890,294.801 436.000 C 295.072 436.207,296.427 453.303,296.410 456.300 C 296.404 457.235,296.549 458.000,296.732 458.000 C 297.081 458.000,297.852 470.437,298.272 482.850 C 298.409 486.892,298.653 490.290,298.815 490.400 C 299.244 490.691,300.004 528.080,300.002 548.800 C 300.001 558.590,300.120 576.455,300.266 588.500 L 300.531 610.400 349.465 610.400 L 398.400 610.400 398.400 591.800 C 398.400 579.667,398.261 573.200,398.000 573.200 C 397.738 573.200,397.597 565.562,397.592 551.100 C 397.581 516.364,396.384 465.922,395.551 465.020 C 395.358 464.811,395.202 463.641,395.205 462.420 C 395.213 458.455,393.880 437.806,393.602 437.600 C 393.454 437.490,393.009 433.170,392.613 428.000 C 392.218 422.830,391.771 418.510,391.620 418.400 C 391.469 418.290,391.018 414.870,390.617 410.800 C 390.217 406.730,389.770 403.310,389.624 403.200 C 389.478 403.090,388.935 399.490,388.416 395.200 C 387.898 390.910,387.353 387.310,387.206 387.200 C 387.058 387.090,386.611 384.570,386.212 381.600 C 385.813 378.630,385.359 376.110,385.204 376.000 C 385.048 375.890,384.600 373.640,384.207 371.000 C 383.814 368.360,383.368 366.110,383.216 366.000 C 383.064 365.890,382.614 363.910,382.215 361.600 C 381.817 359.290,381.374 357.310,381.230 357.200 C 381.087 357.090,380.545 354.750,380.026 352.000 C 379.506 349.250,378.956 346.910,378.803 346.800 C 378.650 346.690,378.204 344.935,377.813 342.900 C 377.421 340.865,376.980 339.200,376.832 339.200 C 376.684 339.200,376.220 337.580,375.800 335.600 C 375.380 333.620,374.921 332.000,374.778 332.000 C 374.636 332.000,374.194 330.605,373.797 328.900 C 373.399 327.195,372.955 325.710,372.810 325.600 C 372.665 325.490,372.121 323.780,371.600 321.800 C 371.079 319.820,370.519 318.107,370.355 317.994 C 370.190 317.880,369.752 316.575,369.379 315.094 C 369.007 313.612,368.571 312.400,368.411 312.400 C 368.250 312.400,367.802 311.230,367.415 309.800 C 367.028 308.370,366.578 307.200,366.415 307.200 C 366.252 307.200,365.802 306.030,365.415 304.600 C 365.028 303.170,364.586 302.000,364.432 302.000 C 364.279 302.000,363.748 300.650,363.252 299.000 C 362.756 297.350,362.207 296.000,362.030 296.000 C 361.854 296.000,361.398 295.010,361.018 293.800 C 360.637 292.590,360.192 291.600,360.028 291.600 C 359.864 291.600,359.393 290.610,358.982 289.400 C 358.571 288.190,358.092 287.200,357.917 287.200 C 357.743 287.200,357.600 286.986,357.600 286.724 C 357.600 286.058,353.965 278.800,353.631 278.800 C 353.481 278.800,353.040 277.914,352.650 276.832 C 352.261 275.749,351.721 274.778,351.449 274.674 C 351.178 274.570,350.712 273.746,350.414 272.843 C 350.116 271.939,349.737 271.200,349.572 271.200 C 349.406 271.200,348.859 270.345,348.354 269.300 C 347.850 268.255,347.114 267.051,346.718 266.625 C 346.323 266.198,346.000 265.622,346.000 265.344 C 346.000 265.067,345.775 264.696,345.500 264.520 C 345.225 264.344,344.649 263.570,344.220 262.800 C 343.791 262.030,343.116 261.051,342.720 260.625 C 342.324 260.198,342.000 259.622,342.000 259.344 C 342.000 259.067,341.775 258.696,341.500 258.520 C 341.225 258.344,340.116 256.895,339.035 255.300 C 337.954 253.705,336.958 252.400,336.821 252.400 C 336.684 252.400,336.230 251.820,335.812 251.112 C 335.393 250.404,334.455 249.228,333.726 248.499 C 332.996 247.770,332.400 247.037,332.400 246.870 C 332.400 246.703,331.590 245.772,330.600 244.800 C 329.610 243.828,328.800 242.904,328.800 242.745 C 328.800 242.360,322.709 236.400,322.316 236.400 C 322.146 236.400,321.245 235.590,320.314 234.600 C 319.382 233.610,318.463 232.800,318.270 232.800 C 318.078 232.800,317.413 232.305,316.792 231.700 C 314.751 229.710,313.816 228.970,312.600 228.381 C 311.940 228.062,311.165 227.485,310.877 227.100 C 310.590 226.715,310.135 226.400,309.866 226.400 C 309.598 226.400,309.070 226.040,308.693 225.600 C 308.316 225.160,307.770 224.800,307.479 224.800 C 307.189 224.800,306.602 224.479,306.175 224.087 C 305.749 223.695,304.680 223.038,303.800 222.628 C 302.920 222.217,302.110 221.764,302.000 221.620 C 301.687 221.210,297.723 219.600,297.026 219.600 C 296.682 219.600,296.400 219.437,296.400 219.237 C 296.400 219.038,295.365 218.554,294.100 218.162 C 292.835 217.770,291.710 217.335,291.600 217.194 C 291.336 216.856,286.050 215.598,284.900 215.599 C 284.405 215.600,284.000 215.447,284.000 215.261 C 284.000 214.167,267.694 213.617,260.808 214.477 " stroke="none" fill="#0cb4b3" fill-rule="evenodd"></path></g></svg>